<?xml version="1.0" encoding="UTF-8" standalone="no"?>
<svg
   xmlns:dc="http://purl.org/dc/elements/1.1/"
   xmlns:cc="http://creativecommons.org/ns#"
   xmlns:rdf="http://www.w3.org/1999/02/22-rdf-syntax-ns#"
   xmlns:svg="http://www.w3.org/2000/svg"
   xmlns="http://www.w3.org/2000/svg"
   xmlns:sodipodi="http://sodipodi.sourceforge.net/DTD/sodipodi-0.dtd"
   xmlns:inkscape="http://www.inkscape.org/namespaces/inkscape"
   inkscape:version="1.0 (4035a4fb49, 2020-05-01)"
   sodipodi:docname="favicon.svg"
   id="svg42"
   version="1.1"
   height="18px"
   width="18px"
   fill="black"
   viewBox="0 0 24 24"
   enable-background="new 0 0 24 24">
  <metadata
     id="metadata48">
    <rdf:RDF>
      <cc:Work
         rdf:about="">
        <dc:format>image/svg+xml</dc:format>
        <dc:type
           rdf:resource="http://purl.org/dc/dcmitype/StillImage" />
      </cc:Work>
    </rdf:RDF>
  </metadata>
  <defs
     id="defs46" />
  <sodipodi:namedview
     inkscape:current-layer="g40"
     inkscape:window-maximized="1"
     inkscape:window-y="-9"
     inkscape:window-x="-9"
     inkscape:cy="9.0049004"
     inkscape:cx="8.9910806"
     inkscape:zoom="45.254834"
     showgrid="false"
     id="namedview44"
     inkscape:window-height="1001"
     inkscape:window-width="1920"
     inkscape:pageshadow="2"
     inkscape:pageopacity="0"
     guidetolerance="10"
     gridtolerance="10"
     objecttolerance="10"
     borderopacity="1"
     bordercolor="#666666"
     pagecolor="#ffffff" />
  <g
     id="g32">
    <rect
       id="rect30"
       width="24"
       height="24"
       fill="none" />
  </g>
  <g
     id="g40">
    <g
       id="g38">
      <path
         style="fill:#00ff00"
         id="path34"
         opacity=".3"
         d="M7.46,9.46C5.68,11.25,5.55,14.04,7.03,16c1.53-2.54,3.73-4.64,6.37-6c-2.26,1.91-3.95,4.44-4.88,7.32 C9.27,17.75,10.11,18,11,18c1.34,0,2.59-0.52,3.54-1.46c1.74-1.74,2.81-6.57,3.26-10.33C14.04,6.65,9.21,7.72,7.46,9.46z" />
      <path
         id="path36"
         d="M6.05,8.05c-2.73,2.73-2.73,7.17,0,9.9C7.42,19.32,9.21,20,11,20s3.58-0.68,4.95-2.05C19.43,14.47,20,4,20,4 S9.53,4.57,6.05,8.05z M14.54,16.54C13.59,17.48,12.34,18,11,18c-0.89,0-1.73-0.25-2.48-0.68c0.92-2.88,2.62-5.41,4.88-7.32 c-2.63,1.36-4.84,3.46-6.37,6c-1.48-1.96-1.35-4.75,0.44-6.54C9.21,7.72,14.04,6.65,17.8,6.2C17.35,9.96,16.28,14.79,14.54,16.54z" />
    </g>
  </g>
</svg>
